<svg width="18" height="19" fill="none" xmlns="http://www.w3.org/2000/svg"><path fill-rule="evenodd" clip-rule="evenodd" d="M17.706 2.006c-.524-.53-1.051-1.057-1.579-1.583l-.175-.176c-.33-.328-.573-.33-.901-.001l-.002.001c-3.269 3.27-6.538 6.538-9.802 9.812a1.1 1.1 0 00-.257.408c-.177.516-.35 1.035-.522 1.553-.134.407-.27.813-.407 1.219-.079.232-.094.443.095.626.182.177.391.155.611.082.326-.11.652-.218.978-.326.591-.197 1.183-.393 1.771-.597a1.21 1.21 0 00.448-.279C11.21 9.507 14.45 6.264 17.69 3.02c.078-.078.146-.166.214-.253.032-.041.063-.082.096-.122v-.281a5.875 5.875 0 01-.09-.116 2.589 2.589 0 00-.204-.243zm-1.074.66c-3.087 3.089-6.174 6.177-9.264 9.262a.916.916 0 01-.33.203c-.378.133-.757.258-1.137.383l-.372.123a2.803 2.803 0 01-.144.041l-.09.024.155-.464c.161-.485.318-.955.478-1.424.017-.05.062-.092.104-.132l.03-.028c3.097-3.1 6.196-6.199 9.295-9.297.031-.032.065-.061.092-.086l.028-.025 1.283 1.28-.029.032a2.154 2.154 0 01-.1.109zm-.645 6.765a.475.475 0 00-.463-.417c-.328-.014-.524.208-.524.6v7.381H1.012V3.01h.318c2.656 0 5.312 0 7.969-.002.116 0 .236-.004.347-.033a.467.467 0 00.347-.471.47.47 0 00-.35-.47 1.195 1.195 0 00-.301-.031C6.452 2 3.561 2 .67 2 .163 2 0 2.166 0 2.676V17.33c0 .524.16.684.686.684H15.31c.53 0 .685-.154.685-.682V9.65c0-.073 0-.147-.01-.22zM1.995 15.2a.47.47 0 01.35-.47 1.22 1.22 0 01.302-.031h2.02l.012-.001h6.639a.04.04 0 01.005 0h2.027c.1 0 .205.007.301.032.217.058.35.244.35.47a.466.466 0 01-.346.471c-.112.03-.232.033-.348.033l-2.644.001H5.337a2919.421 2919.421 0 00-2.647 0 1.39 1.39 0 01-.348-.034.467.467 0 01-.347-.471z" fill="#210F59"/></svg>