<svg width="10" height="14" fill="none" xmlns="http://www.w3.org/2000/svg"><path d="M4.714 0h.572c.047.008.094.02.14.025.375.039.743.116 1.08.286 1.479.75 2.324 1.956 2.377 3.715.01.373-.21.625-.566.64a5.795 5.795 0 01-.533 0c-.317-.015-.524-.223-.56-.553-.006-.06 0-.12-.01-.177-.058-.268-.082-.555-.188-.802-.414-.981-1.303-1.482-2.352-1.357-.996.117-1.87 1.099-1.887 2.15-.015.992-.006 1.985-.007 2.98 0 .026.003.052.006.093H9.1c.541 0 .895.357.897.91.003 1.727.003 3.455 0 5.18 0 .537-.35.907-.858.909-2.76.003-5.52 0-8.281 0a.788.788 0 01-.702-.37c-.071-.11-.106-.244-.157-.368V7.738c.008-.02.017-.041.023-.06.14-.462.417-.676.875-.678h.215v-.178c0-.889.005-1.775 0-2.663-.006-.962.245-1.833.825-2.585C2.488.862 3.166.347 4.027.129c.226-.057.458-.086.689-.129h-.002z" fill="#fff"/></svg>